<svg width="23" height="17" viewBox="0 0 23 17" fill="none" xmlns="http://www.w3.org/2000/svg">
<path d="M19.794 6.47459L18.0819 15.4039H4.88696L3.17513 6.47459L1.72009 6.7536L3.54725 16.2838C3.61416 16.6332 3.91934 16.8853 4.27466 16.8853H18.6942C19.0496 16.8853 19.3547 16.6329 19.4219 16.2838L21.249 6.7536L19.794 6.47459Z" fill="#353535"/>
<path d="M21.8299 5.87322H1.13882C0.729663 5.87322 0.398071 6.19562 0.398071 6.59343C0.398071 6.99125 0.729663 7.31365 1.13882 7.31365H21.8299C22.239 7.31365 22.5706 6.99125 22.5706 6.59343C22.5706 6.19562 22.239 5.87322 21.8299 5.87322Z" fill="#353535"/>
<path d="M19.8327 6.17344L15.9071 0.864794C15.6634 0.535664 15.2002 0.466503 14.8711 0.709713C14.5422 0.953183 14.4728 1.41687 14.716 1.74578L18.6416 7.05447C18.787 7.251 19.0107 7.35472 19.2376 7.35472C19.3907 7.35472 19.545 7.30756 19.6776 7.20951C20.0065 6.96604 20.0759 6.50236 19.8327 6.17344Z" fill="#353535"/>
<path d="M8.42082 0.710993C8.09244 0.466788 7.62873 0.535169 7.38432 0.863085L3.43383 6.17172C3.18963 6.49985 3.2578 6.96405 3.58592 7.20825C3.71899 7.30704 3.87381 7.35467 4.02763 7.35467C4.25381 7.35467 4.477 7.25147 4.62242 7.05616L8.5729 1.74749C8.8171 1.41936 8.74898 0.955154 8.42082 0.710993Z" fill="#353535"/>
</svg>
