<svg width="34" height="37" viewBox="0 0 34 37" fill="none" xmlns="http://www.w3.org/2000/svg">
<path d="M20.4382 0.522522H13.5618C6.35956 0.522522 0.5 6.39579 0.5 13.6152V19.8255C0.5 25.2018 3.79519 30.0336 8.75 32.0014V36.0275C8.75 36.3004 8.91019 36.5472 9.15906 36.6575C9.24844 36.6974 9.34331 36.7167 9.4375 36.7167C9.60456 36.7167 9.77025 36.6554 9.89881 36.5382L13.8856 32.9182H20.4382C27.6404 32.9182 33.5 27.0449 33.5 19.8255V13.6152C33.5 6.39579 27.6404 0.522522 20.4382 0.522522ZM32.125 19.8255C32.125 26.2846 26.8828 31.5396 20.4382 31.5396H13.6202C13.4497 31.5396 13.2854 31.603 13.1589 31.7182L10.125 34.4732V31.5238C10.125 31.2315 9.94144 30.971 9.66644 30.8745C5.00656 29.2223 1.875 24.782 1.875 19.8255V13.6152C1.875 7.15605 7.11788 1.90106 13.5618 1.90106H20.4382C26.8828 1.90106 32.125 7.15605 32.125 13.6152V19.8255Z" fill="white" stroke="white" stroke-width="0.5"/>
<path d="M26.0862 21.5404L21.8608 18.7889C21.3988 18.4876 20.8488 18.3856 20.3105 18.4973C19.7715 18.611 19.3081 18.9302 19.0077 19.3954L18.809 19.7014C16.9803 19.0956 14.9638 18.3215 13.7566 14.818L14.2564 14.3824C15.1144 13.6345 15.2044 12.3263 14.4585 11.4647L11.153 7.65235C10.9041 7.36493 10.4696 7.33529 10.1829 7.58411L8.10738 9.39275C6.28688 10.9794 7.13731 13.3264 7.41713 14.0977C7.4295 14.1322 7.44463 14.1652 7.4625 14.1976C7.53469 14.3272 9.25825 17.411 12.0419 20.2535C14.8366 23.1078 19.8822 25.7436 20.0369 25.8201C20.613 26.195 21.2613 26.3749 21.9028 26.3749C23.0289 26.3749 24.133 25.8215 24.7916 24.8069L26.289 22.495C26.4953 22.1745 26.4045 21.7479 26.0862 21.5404ZM23.638 24.0556C23.0186 25.0123 21.7385 25.2838 20.7278 24.6304C20.6776 24.6042 15.6651 21.9871 13.023 19.2886C10.5535 16.7665 8.91382 13.9647 8.69038 13.5739C8.14588 12.043 8.24213 11.1021 9.00938 10.4335L10.5666 9.07707L13.4211 12.369C13.6748 12.6613 13.6452 13.0886 13.3551 13.3416L12.5115 14.0763C12.3059 14.2555 12.2248 14.5388 12.3053 14.7994C13.7435 19.485 16.5403 20.4052 18.5821 21.0772L18.8798 21.1758C19.1775 21.2764 19.5034 21.1613 19.6739 20.898L20.1613 20.1453C20.2617 19.9896 20.4157 19.8841 20.5944 19.8462C20.7739 19.8076 20.9568 19.8434 21.1121 19.9448L24.7614 22.3207L23.638 24.0556Z" fill="white" stroke="white" stroke-width="0.5"/>
<path d="M18.5697 11.7209C18.204 11.6154 17.8238 11.8284 17.72 12.1951C17.6162 12.5612 17.8279 12.9424 18.193 13.0464C19.2173 13.3387 20.0334 14.1583 20.3221 15.186C20.4074 15.4893 20.683 15.6885 20.9835 15.6885C21.0454 15.6885 21.1079 15.6803 21.1705 15.663C21.5355 15.5596 21.7486 15.1791 21.6455 14.8124C21.2282 13.3277 20.0492 12.1428 18.5697 11.7209Z" fill="white" stroke="white" stroke-width="0.5"/>
<path d="M23.8014 15.8373C23.8633 15.8373 23.9258 15.8291 23.9884 15.8118C24.3542 15.7084 24.5666 15.3273 24.4635 14.9613C23.6522 12.078 21.3635 9.77859 18.4897 8.95835C18.1247 8.85289 17.7445 9.06725 17.6406 9.43326C17.5368 9.79927 17.7486 10.1804 18.1136 10.2845C20.5316 10.9738 22.4573 12.91 23.14 15.3355C23.226 15.6388 23.501 15.8373 23.8014 15.8373Z" fill="white" stroke="white" stroke-width="0.5"/>
<path d="M18.1938 5.74849C17.828 5.64303 17.4478 5.85601 17.344 6.22339C17.2402 6.58939 17.452 6.97056 17.817 7.07464C21.9138 8.24295 25.1773 11.5225 26.3337 15.6326C26.4189 15.9359 26.6946 16.1351 26.9951 16.1351C27.0569 16.1351 27.1195 16.1268 27.1821 16.1096C27.5471 16.0062 27.7602 15.625 27.6571 15.259C26.3722 10.6912 22.7463 7.04776 18.1938 5.74849Z" fill="white" stroke="white" stroke-width="0.5"/>
</svg>
