<svg width="34" height="35" viewBox="0 0 34 35" fill="none" xmlns="http://www.w3.org/2000/svg">
<path d="M17 1.07715C7.90152 1.07715 0.5 8.49772 0.5 17.6196C0.5 20.7315 1.36244 23.7524 2.99848 26.3757C2.34673 28.6649 1.16952 32.9952 1.15683 33.0404C1.0959 33.2644 1.16127 33.5036 1.32817 33.6646C1.49508 33.8255 1.73623 33.8828 1.95581 33.8154L8.49615 31.7984C11.0581 33.3458 13.9919 34.1621 17 34.1621C26.0985 34.1621 33.5 26.7415 33.5 17.6196C33.5 8.49772 26.0985 1.07715 17 1.07715ZM17 32.8896C14.1322 32.8896 11.3386 32.086 8.92071 30.5667C8.81854 30.5024 8.70113 30.47 8.58373 30.47C8.5209 30.47 8.45808 30.4795 8.39715 30.4979L2.68625 32.2604C3.10573 30.7251 3.85965 27.979 4.2969 26.4514C4.34767 26.2745 4.31912 26.0837 4.21948 25.929C2.61644 23.4559 1.76923 20.5826 1.76923 17.6196C1.76923 9.20014 8.60213 2.34965 17 2.34965C25.3979 2.34965 32.2308 9.20014 32.2308 17.6196C32.2308 26.0391 25.3979 32.8896 17 32.8896Z" fill="white" stroke="white" stroke-width="0.5"/>
<path d="M27.7788 21.5173C26.6073 20.8652 25.6097 20.2111 24.8818 19.7339C24.3259 19.37 23.9242 19.1072 23.6297 18.959C22.8066 18.5473 22.1828 18.8381 21.9454 19.0786C21.9156 19.1085 21.8889 19.1409 21.8661 19.1753C21.0113 20.4612 19.895 21.691 19.5682 21.7572C19.1906 21.698 17.4231 20.6909 15.6665 19.2243C13.8731 17.7259 12.7448 16.2912 12.5791 15.3139C13.7297 14.1266 14.1441 13.3797 14.1441 12.5297C14.1441 11.6535 12.1057 7.99573 11.737 7.62607C11.367 7.25577 10.5338 7.19787 9.26007 7.45237C9.13759 7.47719 9.02463 7.53763 8.93579 7.62607C8.78157 7.78068 5.17314 11.469 6.88788 15.9393C8.77015 20.8455 13.6015 26.5482 19.7611 27.4746C20.4611 27.5795 21.1173 27.6317 21.7316 27.6317C25.3552 27.6317 27.4939 25.8038 28.0961 22.1778C28.1412 21.9125 28.0136 21.6478 27.7788 21.5173ZM19.9496 26.2161C13.4359 25.2369 9.33306 18.7668 8.07271 15.4825C6.82251 12.2249 9.12807 9.32041 9.70685 8.6638C10.1777 8.58363 10.6734 8.54991 10.8803 8.58236C11.3124 9.18489 12.8089 12.0194 12.8749 12.5297C12.8749 12.8637 12.7663 13.3288 11.4743 14.6248C11.3549 14.7438 11.2883 14.9054 11.2883 15.0747C11.2883 18.4061 18.297 23.0278 19.5383 23.0278C20.6178 23.0278 22.0254 21.2088 22.8269 20.0234C22.8732 20.0253 22.9513 20.0412 23.0624 20.0972C23.2908 20.2124 23.6868 20.4713 24.1875 20.7996C24.8488 21.2329 25.7271 21.8081 26.7641 22.4043C26.2932 24.6757 24.977 26.9732 19.9496 26.2161Z" fill="white" stroke="white" stroke-width="0.5"/>
</svg>
