<svg width="17" height="24" viewBox="0 0 17 24" fill="none" xmlns="http://www.w3.org/2000/svg">
<path d="M11.4609 1.06175C11.3675 0.955505 11.2394 0.891724 11.1066 0.891724H3.15904C1.6925 0.891724 0.481964 2.19371 0.481964 3.77718V20.0061C0.481964 21.5897 1.6925 22.8917 3.15904 22.8917H13.946C15.4125 22.8917 16.623 21.5897 16.623 20.0061V7.11967C16.623 6.98154 16.564 6.84877 16.4804 6.74773L11.4609 1.06175ZM11.6036 2.76758L14.9647 6.5777H12.7797C12.1302 6.5777 11.6036 6.0144 11.6036 5.31297V2.76758ZM13.946 21.8289H3.15904C2.23886 21.8289 1.46618 21.0053 1.46618 20.0061V3.77718C1.46618 2.78352 2.23388 1.95453 3.15904 1.95453H10.6193V5.31297C10.6193 6.60422 11.584 7.6405 12.7797 7.6405H15.6388V20.0061C15.6388 21.0053 14.8711 21.8289 13.946 21.8289Z" fill="#353535" stroke="#353535" stroke-width="0.5"/>
<path d="M12.6025 18.1625H4.50238C4.23177 18.1625 4.01027 18.4015 4.01027 18.6939C4.01027 18.9861 4.23177 19.2253 4.50238 19.2253H12.6074C12.878 19.2253 13.0995 18.9861 13.0995 18.6939C13.0995 18.4015 12.878 18.1625 12.6025 18.1625Z" fill="#353535" stroke="#353535" stroke-width="0.5"/>
<path d="M6.03284 12.4444L8.06035 10.0902V15.8932C8.06035 16.1854 8.28184 16.4246 8.55246 16.4246C8.82323 16.4246 9.04457 16.1854 9.04457 15.8932V10.0902L11.0721 12.4444C11.1705 12.5559 11.2985 12.6145 11.4313 12.6145C11.5494 12.6145 11.6725 12.5666 11.7659 12.471C11.9629 12.269 11.9776 11.9342 11.7907 11.7217L8.90685 8.3792C8.81328 8.27295 8.68535 8.20917 8.54764 8.20917C8.40977 8.20917 8.28184 8.27295 8.18842 8.3792L5.30462 11.7217C5.11763 11.9342 5.1324 12.2743 5.32918 12.471C5.53591 12.6729 5.84585 12.6569 6.03284 12.4444Z" fill="#353535" stroke="#353535" stroke-width="0.5"/>
</svg>
