<svg width="23" height="23" viewBox="0 0 23 23" fill="none" xmlns="http://www.w3.org/2000/svg">
<path d="M19.7051 2.47671H17.348V0.905297C17.348 0.471344 16.9962 0.119568 16.5622 0.119568C16.1283 0.119568 15.7765 0.471344 15.7765 0.905297V2.47671H6.34795V0.905297C6.34795 0.471344 5.99617 0.119568 5.56227 0.119568C5.12836 0.119568 4.77654 0.471344 4.77654 0.905297V2.47671H2.4194C1.11758 2.47671 0.0622559 3.53204 0.0622559 4.83385V19.7624C0.0622559 21.0642 1.11758 22.1196 2.4194 22.1196H19.7051C21.0069 22.1196 22.0623 21.0642 22.0623 19.7624V4.83385C22.0623 3.53204 21.0069 2.47671 19.7051 2.47671ZM20.4908 19.7624C20.4908 20.1964 20.139 20.5482 19.7051 20.5482H2.4194C1.98544 20.5482 1.63367 20.1964 1.63367 19.7624V9.54813H20.4908V19.7624ZM20.4908 7.97672H1.63367V4.83385C1.63367 4.3999 1.98544 4.04812 2.4194 4.04812H4.77654V5.61953C4.77654 6.05349 5.12831 6.40526 5.56227 6.40526C5.99622 6.40526 6.348 6.05349 6.348 5.61953V4.04812H15.7766V5.61953C15.7766 6.05349 16.1283 6.40526 16.5623 6.40526C16.9962 6.40526 17.348 6.05349 17.348 5.61953V4.04812H19.7052C20.1391 4.04812 20.4909 4.3999 20.4909 4.83385V7.97672H20.4908Z" fill="#C6C6C6"/>
<path d="M6.34799 11.1195H4.77657C4.34262 11.1195 3.99084 11.4713 3.99084 11.9053C3.99084 12.3392 4.34262 12.691 4.77657 12.691H6.34799C6.78194 12.691 7.13372 12.3392 7.13372 11.9053C7.13372 11.4713 6.78194 11.1195 6.34799 11.1195Z" fill="#C6C6C6"/>
<path d="M11.848 11.1195H10.2766C9.84262 11.1195 9.49084 11.4713 9.49084 11.9053C9.49084 12.3392 9.84262 12.691 10.2766 12.691H11.848C12.2819 12.691 12.6337 12.3392 12.6337 11.9053C12.6337 11.4713 12.2819 11.1195 11.848 11.1195Z" fill="#C6C6C6"/>
<path d="M17.348 11.1195H15.7766C15.3426 11.1195 14.9908 11.4713 14.9908 11.9053C14.9908 12.3392 15.3426 12.691 15.7766 12.691H17.348C17.7819 12.691 18.1337 12.3392 18.1337 11.9053C18.1337 11.4713 17.7819 11.1195 17.348 11.1195Z" fill="#C6C6C6"/>
<path d="M6.34799 14.2624H4.77657C4.34262 14.2624 3.99084 14.6142 3.99084 15.0481C3.99084 15.4821 4.34262 15.8339 4.77657 15.8339H6.34799C6.78194 15.8339 7.13372 15.4821 7.13372 15.0481C7.13372 14.6142 6.78194 14.2624 6.34799 14.2624Z" fill="#C6C6C6"/>
<path d="M11.848 14.2624H10.2766C9.84262 14.2624 9.49084 14.6142 9.49084 15.0481C9.49084 15.4821 9.84262 15.8339 10.2766 15.8339H11.848C12.2819 15.8339 12.6337 15.4821 12.6337 15.0481C12.6337 14.6142 12.2819 14.2624 11.848 14.2624Z" fill="#C6C6C6"/>
<path d="M17.348 14.2624H15.7766C15.3426 14.2624 14.9908 14.6142 14.9908 15.0481C14.9908 15.4821 15.3426 15.8339 15.7766 15.8339H17.348C17.7819 15.8339 18.1337 15.4821 18.1337 15.0481C18.1337 14.6142 17.7819 14.2624 17.348 14.2624Z" fill="#C6C6C6"/>
<path d="M6.34799 17.4053H4.77657C4.34262 17.4053 3.99084 17.757 3.99084 18.191C3.99084 18.625 4.34262 18.9767 4.77657 18.9767H6.34799C6.78194 18.9767 7.13372 18.6249 7.13372 18.191C7.13372 17.757 6.78194 17.4053 6.34799 17.4053Z" fill="#C6C6C6"/>
<path d="M11.848 17.4053H10.2766C9.84262 17.4053 9.49084 17.757 9.49084 18.191C9.49084 18.625 9.84262 18.9767 10.2766 18.9767H11.848C12.2819 18.9767 12.6337 18.625 12.6337 18.191C12.6337 17.757 12.2819 17.4053 11.848 17.4053Z" fill="#C6C6C6"/>
<path d="M17.348 17.4053H15.7766C15.3426 17.4053 14.9908 17.757 14.9908 18.191C14.9908 18.625 15.3426 18.9767 15.7766 18.9767H17.348C17.7819 18.9767 18.1337 18.625 18.1337 18.191C18.1337 17.757 17.7819 17.4053 17.348 17.4053Z" fill="#C6C6C6"/>
</svg>
