<svg width="34" height="34" viewBox="0 0 34 34" fill="none" xmlns="http://www.w3.org/2000/svg">
<path d="M33.4995 15.9501C33.4008 11.6215 31.6294 7.58772 28.5115 4.592C25.3981 1.60058 21.3084 -0.00166445 16.9997 0.0786117C12.6893 -0.00242179 8.60169 1.60083 5.48827 4.592C2.37032 7.58772 0.598955 11.6215 0.500252 15.9498L0.5 15.9635V15.9771C0.522661 20.3885 2.40683 24.5823 5.67737 27.5217V31.5211C5.67737 32.2974 6.21797 32.9737 6.96277 33.1292C7.07306 33.1522 7.1841 33.1635 7.29464 33.1635C7.59427 33.1635 7.88887 33.0797 8.14821 32.9171L11.3543 30.9092C13.1624 31.5439 15.0491 31.8655 16.9673 31.8655H16.9914C17.0974 31.8675 17.2027 31.8685 17.3084 31.8685C21.5051 31.8682 25.4726 30.2718 28.5115 27.3521C31.6294 24.3564 33.4008 20.3229 33.4995 15.9943L33.5 15.972L33.4995 15.9501ZM27.1722 25.951C24.4961 28.5221 21.003 29.928 17.3074 29.928C17.2115 29.928 17.1153 29.927 17.0189 29.9252L17.0083 29.9249H16.998C15.2145 29.9285 13.458 29.6177 11.7821 29.0015C11.3674 28.849 10.9157 28.8957 10.543 29.1293L7.6129 30.9642V27.2854C7.6129 26.8752 7.43488 26.4847 7.12468 26.2141C4.16812 23.6374 2.45971 19.9081 2.43579 15.9806C2.52568 12.1743 4.08503 8.62803 6.82756 5.99305C9.57311 3.35529 13.1806 1.94465 16.9806 2.01912L16.9997 2.01938L17.0189 2.01912C20.8215 1.9439 24.4266 3.35529 27.1722 5.99305C29.9122 8.62575 31.4713 12.1693 31.5637 15.972C31.4716 19.7751 29.9125 23.3183 27.1722 25.951Z" fill="white"/>
<path d="M25.9334 10.6561L19.7894 14.0146L16.1089 10.8505C15.4721 10.3032 14.5087 10.3403 13.916 10.9348L6.14795 18.7229C5.84378 19.0298 5.67684 19.4368 5.67835 19.8692C5.67961 20.3019 5.84882 20.7081 6.15475 21.0128C6.46672 21.3235 6.87488 21.4856 7.28983 21.4856C7.55321 21.4856 7.8191 21.4205 8.0651 21.2867L14.2094 17.9282L17.8936 21.0936C18.5304 21.6408 19.4938 21.6037 20.0865 21.0092L27.8558 13.2199C28.4158 12.6532 28.4775 11.7461 28.0001 11.1085C27.5224 10.4678 26.6341 10.2734 25.9334 10.6561ZM18.9277 19.4264L15.1959 16.2202C14.935 15.996 14.6052 15.8804 14.2733 15.8804C14.0417 15.8804 13.809 15.9367 13.5985 16.0518L9.09318 18.5144L15.0745 12.5176L18.8021 15.7224C19.2452 16.1033 19.8873 16.1712 20.4002 15.891L24.9166 13.4221L18.9277 19.4264Z" fill="white"/>
</svg>
