<svg width="31" height="31" viewBox="0 0 31 31" fill="none" xmlns="http://www.w3.org/2000/svg">
<path d="M19.9865 8.18652H11.0451C9.61791 8.18652 8.45679 9.34765 8.45679 10.7748V19.7162C8.45679 21.1434 9.61791 22.3048 11.0451 22.3048H19.9865C21.4136 22.3048 22.5751 21.1437 22.5751 19.7162V10.7748C22.5751 9.34765 21.414 8.18652 19.9865 8.18652ZM15.5158 19.8933C12.9532 19.8933 10.8683 17.8084 10.8683 15.2455C10.8683 12.6829 12.9532 10.598 15.5158 10.598C18.0787 10.598 20.1636 12.6829 20.1636 15.2455C20.1636 17.8081 18.0783 19.8933 15.5158 19.8933ZM20.313 11.5589C19.7064 11.5589 19.213 11.0656 19.213 10.4593C19.213 9.853 19.7064 9.35968 20.313 9.35968C20.9193 9.35968 21.4126 9.853 21.4126 10.4593C21.4126 11.0656 20.9193 11.5589 20.313 11.5589Z" fill="#147EC2"/>
<path d="M15.5155 12.5625C14.0362 12.5625 12.8317 13.7664 12.8317 15.2457C12.8317 16.7257 14.0362 17.9299 15.5155 17.9299C16.9955 17.9299 18.1991 16.7257 18.1991 15.2457C18.1991 13.7667 16.9952 12.5625 15.5155 12.5625Z" fill="#147EC2"/>
<path d="M15.5156 0.205078C7.23168 0.205078 0.515625 6.92114 0.515625 15.2051C0.515625 23.489 7.23168 30.2051 15.5156 30.2051C23.7996 30.2051 30.5156 23.489 30.5156 15.2051C30.5156 6.92114 23.7996 0.205078 15.5156 0.205078ZM24.5386 19.7162C24.5386 22.2266 22.4967 24.2684 19.9863 24.2684H11.0449C8.53485 24.2684 6.4927 22.2266 6.4927 19.7162V10.7748C6.4927 8.26475 8.53485 6.22259 11.0449 6.22259H19.9863C22.4967 6.22259 24.5386 8.26475 24.5386 10.7748V19.7162Z" fill="#147EC2"/>
</svg>
