<svg width="31" height="31" viewBox="0 0 31 31" fill="none" xmlns="http://www.w3.org/2000/svg">
<path d="M13.6475 18.4095L18.5268 15.5993L13.6475 12.7891V18.4095Z" fill="#114F9F"/>
<path d="M15.5156 0.599609C7.23262 0.599609 0.515625 7.3166 0.515625 15.5996C0.515625 23.8826 7.23262 30.5996 15.5156 30.5996C23.7986 30.5996 30.5156 23.8826 30.5156 15.5996C30.5156 7.3166 23.7986 0.599609 15.5156 0.599609ZM24.8883 15.6149C24.8883 15.6149 24.8883 18.657 24.5024 20.1239C24.2861 20.9268 23.6531 21.5599 22.8501 21.776C21.3832 22.1621 15.5156 22.1621 15.5156 22.1621C15.5156 22.1621 9.66335 22.1621 8.18111 21.7607C7.37819 21.5446 6.7451 20.9113 6.52881 20.1084C6.14268 18.657 6.14268 15.5996 6.14268 15.5996C6.14268 15.5996 6.14268 12.5578 6.52881 11.0909C6.74487 10.2879 7.39352 9.6393 8.18111 9.42323C9.64801 9.03711 15.5156 9.03711 15.5156 9.03711C15.5156 9.03711 21.3832 9.03711 22.8501 9.43857C23.6531 9.65463 24.2861 10.2879 24.5024 11.0909C24.9039 12.5578 24.8883 15.6149 24.8883 15.6149Z" fill="#114F9F"/>
</svg>
